<svg xmlns="http://www.w3.org/2000/svg" viewBox="0 0 1440 320"><path fill="#000000" fill-opacity="1" d="M0,224L34.3,229.3C68.6,235,137,245,206,213.3C274.3,181,343,107,411,112C480,117,549,203,617,202.7C685.7,203,754,117,823,90.7C891.4,64,960,96,1029,138.7C1097.1,181,1166,235,1234,245.3C1302.9,256,1371,224,1406,208L1440,192L1440,0L1405.7,0C1371.4,0,1303,0,1234,0C1165.7,0,1097,0,1029,0C960,0,891,0,823,0C754.3,0,686,0,617,0C548.6,0,480,0,411,0C342.9,0,274,0,206,0C137.1,0,69,0,34,0L0,0Z"></path></svg>